<svg xmlns="http://www.w3.org/2000/svg" width="200" height="200" viewBox="0 0 200 200" role="img" aria-label="?????">
  <rect width="200" height="200" fill="#ffffff"/>
  <rect x="12" y="12" width="52" height="52" fill="#1a1a2e" rx="4"/>
  <rect x="20" y="20" width="36" height="36" fill="#ffffff" rx="2"/>
  <rect x="28" y="28" width="20" height="20" fill="#1a1a2e" rx="2"/>
  <rect x="136" y="12" width="52" height="52" fill="#1a1a2e" rx="4"/>
  <rect x="144" y="20" width="36" height="36" fill="#ffffff" rx="2"/>
  <rect x="152" y="28" width="20" height="20" fill="#1a1a2e" rx="2"/>
  <rect x="12" y="136" width="52" height="52" fill="#1a1a2e" rx="4"/>
  <rect x="20" y="144" width="36" height="36" fill="#ffffff" rx="2"/>
  <rect x="28" y="152" width="20" height="20" fill="#1a1a2e" rx="2"/>
  <g fill="#1a1a2e">
    <rect x="76" y="12" width="10" height="10" rx="2"/><rect x="94" y="12" width="10" height="10" rx="2"/><rect x="112" y="12" width="10" height="10" rx="2"/>
    <rect x="76" y="30" width="10" height="10" rx="2"/><rect x="103" y="30" width="10" height="10" rx="2"/><rect x="121" y="30" width="10" height="10" rx="2"/>
    <rect x="76" y="48" width="10" height="10" rx="2"/><rect x="94" y="48" width="10" height="10" rx="2"/><rect x="112" y="48" width="10" height="10" rx="2"/>
    <rect x="76" y="76" width="8" height="8" rx="1"/><rect x="92" y="76" width="8" height="8" rx="1"/><rect x="108" y="76" width="8" height="8" rx="1"/>
    <rect x="124" y="76" width="8" height="8" rx="1"/><rect x="140" y="76" width="8" height="8" rx="1"/><rect x="156" y="76" width="8" height="8" rx="1"/>
    <rect x="76" y="92" width="8" height="8" rx="1"/><rect x="100" y="92" width="8" height="8" rx="1"/><rect x="124" y="92" width="8" height="8" rx="1"/>
    <rect x="148" y="92" width="8" height="8" rx="1"/><rect x="172" y="92" width="8" height="8" rx="1"/><rect x="76" y="108" width="8" height="8" rx="1"/>
    <rect x="92" y="108" width="8" height="8" rx="1"/><rect x="116" y="108" width="8" height="8" rx="1"/><rect x="140" y="108" width="8" height="8" rx="1"/>
    <rect x="164" y="108" width="8" height="8" rx="1"/><rect x="76" y="124" width="8" height="8" rx="1"/><rect x="100" y="124" width="8" height="8" rx="1"/>
    <rect x="124" y="124" width="8" height="8" rx="1"/><rect x="148" y="124" width="8" height="8" rx="1"/><rect x="172" y="124" width="8" height="8" rx="1"/>
  </g>
  <text x="100" y="188" text-anchor="middle" fill="#9b2148" font-family="system-ui, -apple-system, sans-serif" font-size="13" font-weight="700">JLUDate</text>
</svg>
